<svg width="32" height="32" viewBox="0 0 32 32" fill="none" xmlns="http://www.w3.org/2000/svg">
<g clip-path="url(#clip0_2278_7650)">
<path
      d="M27.3137 27.3137C33.5621 21.0653 33.5621 10.9347 27.3137 4.68629C21.0654 -1.5621 10.9347 -1.5621 4.68633 4.68629C-1.56206 10.9347 -1.56206 21.0653 4.68633 27.3137C10.9347 33.5621 21.0654 33.5621 27.3137 27.3137Z"
      fill="#1ABF01"
    />
<path
      d="M9.89915 14.1825C11.0451 13.9965 11.8233 12.9167 11.6373 11.7707C11.4513 10.6247 10.3715 9.8465 9.22551 10.0325C8.07952 10.2185 7.30131 11.2983 7.48733 12.4443C7.67335 13.5903 8.75316 14.3685 9.89915 14.1825Z"
      fill="black"
    />
<path
      d="M22.678 14.1692C23.8274 14.0183 24.6368 12.9642 24.4859 11.8148C24.3349 10.6655 23.2808 9.85605 22.1315 10.007C20.9821 10.1579 20.1727 11.212 20.3236 12.3614C20.4745 13.5108 21.5286 14.3202 22.678 14.1692Z"
      fill="black"
    />
<path
      d="M16 24.7569C12.4046 24.7569 9.36956 22.0711 8.92617 18.4846C8.91061 18.3711 8.91774 18.2557 8.94716 18.145C8.97657 18.0343 9.02769 17.9305 9.09753 17.8397C9.16737 17.7489 9.25456 17.6729 9.35402 17.6161C9.45348 17.5593 9.56323 17.5228 9.67691 17.5087C9.79059 17.4946 9.90593 17.5033 10.0162 17.5342C10.1265 17.5651 10.2296 17.6176 10.3195 17.6886C10.4093 17.7596 10.4842 17.8478 10.5397 17.948C10.5952 18.0482 10.6302 18.1584 10.6428 18.2723C10.9782 20.9908 13.2772 23.0274 16 23.0274H16.0468C18.7428 23.0043 21.0262 20.96 21.3582 18.2726C21.3894 18.0476 21.5078 17.8439 21.688 17.7055C21.8681 17.567 22.0955 17.5051 22.3209 17.5329C22.5464 17.5608 22.7518 17.6762 22.8929 17.8543C23.034 18.0323 23.0993 18.2588 23.0748 18.4846C22.6366 22.0308 19.6216 24.7261 16.0616 24.7566L16 24.7569Z"
      fill="black"
    />
</g>
<defs>
<clipPath id="clip0_2278_7650">
<rect width="32" height="32" fill="white" />
</clipPath>
</defs>
</svg>
