<svg width="32" height="32" viewBox="0 0 32 32" fill="none" xmlns="http://www.w3.org/2000/svg">
<g clip-path="url(#clip0_2278_7671)">
<path
      d="M16 32C24.8366 32 32 24.8366 32 16C32 7.16344 24.8366 0 16 0C7.16344 0 0 7.16344 0 16C0 24.8366 7.16344 32 16 32Z"
      fill="#FC9901"
    />
<path
      d="M11.5004 12.921C11.9494 11.8503 11.4454 10.6184 10.3748 10.1694C9.3041 9.72047 8.0722 10.2245 7.62323 11.2951C7.17426 12.3658 7.67825 13.5977 8.74891 14.0467C9.81957 14.4956 11.0515 13.9916 11.5004 12.921Z"
      fill="black"
    />
<path
      d="M24.3768 12.9212C24.8258 11.8505 24.3218 10.6186 23.2511 10.1697C22.1804 9.7207 20.9485 10.2247 20.4996 11.2953C20.0506 12.366 20.5546 13.5979 21.6253 14.0469C22.6959 14.4958 23.9278 13.9919 24.3768 12.9212Z"
      fill="black"
    />
<path
      d="M21.4061 22.4868C21.2507 22.4869 21.098 22.445 20.9643 22.3657C20.8305 22.2864 20.7206 22.1725 20.6461 22.036C19.6726 20.2514 17.7569 19.156 15.7674 19.2425C12.8394 19.3708 11.3674 22.008 11.3545 22.0345C11.2449 22.236 11.0598 22.3858 10.8399 22.4509C10.6199 22.516 10.3831 22.4911 10.1815 22.3815C9.97997 22.272 9.83016 22.0869 9.76507 21.867C9.69998 21.647 9.72494 21.4102 9.83446 21.2086C9.91261 21.0649 11.7926 17.6849 15.692 17.5145C18.3381 17.3985 20.8769 18.8486 22.1646 21.2068C22.2363 21.3385 22.2726 21.4865 22.2698 21.6365C22.2671 21.7864 22.2254 21.933 22.149 22.062C22.0725 22.191 21.9638 22.2979 21.8336 22.3722C21.7034 22.4466 21.5561 22.4859 21.4061 22.4862V22.4868Z"
      fill="black"
    />
</g>
<defs>
<clipPath id="clip0_2278_7671">
<rect width="32" height="32" fill="white" />
</clipPath>
</defs>
</svg>
