<svg width="32" height="32" viewBox="0 0 32 32" fill="none" xmlns="http://www.w3.org/2000/svg">
<g clip-path="url(#clip0_2278_7678)">
<path
      d="M16 32C24.8366 32 32 24.8366 32 16C32 7.16344 24.8366 0 16 0C7.16344 0 0 7.16344 0 16C0 24.8366 7.16344 32 16 32Z"
      fill="#8DD100"
    />
<path
      d="M9.56184 14.2102C10.7228 14.2102 11.664 13.269 11.664 12.108C11.664 10.947 10.7228 10.0058 9.56184 10.0058C8.40085 10.0058 7.45969 10.947 7.45969 12.108C7.45969 13.269 8.40085 14.2102 9.56184 14.2102Z"
      fill="black"
    />
<path
      d="M22.4382 14.2102C23.5991 14.2102 24.5403 13.269 24.5403 12.108C24.5403 10.947 23.5991 10.0058 22.4382 10.0058C21.2772 10.0058 20.336 10.947 20.336 12.108C20.336 13.269 21.2772 14.2102 22.4382 14.2102Z"
      fill="black"
    />
<path
      d="M15.9868 22.9665C15.8885 22.9665 15.7902 22.9643 15.692 22.96C11.7914 22.7895 9.9126 19.4095 9.83445 19.2659C9.73248 19.065 9.71286 18.8324 9.77977 18.6173C9.84667 18.4023 9.99482 18.2218 10.1927 18.1143C10.3906 18.0068 10.6226 17.9807 10.8395 18.0415C11.0563 18.1024 11.2408 18.2455 11.3538 18.4403C11.3683 18.4668 12.8381 21.104 15.7664 21.232C17.7572 21.3185 19.6717 20.2225 20.6452 18.4388C20.7556 18.2383 20.9409 18.0897 21.1606 18.0256C21.3802 17.9614 21.6164 17.987 21.8173 18.0966C22.0182 18.2062 22.1674 18.391 22.2323 18.6104C22.2973 18.8299 22.2726 19.0661 22.1637 19.2674C20.9249 21.5385 18.5231 22.9665 15.9868 22.9665Z"
      fill="black"
    />
</g>
<defs>
<clipPath id="clip0_2278_7678">
<rect width="32" height="32" fill="white" />
</clipPath>
</defs>
</svg>
