<svg width="32" height="32" viewBox="0 0 32 32" fill="none" xmlns="http://www.w3.org/2000/svg">
<g clip-path="url(#clip0_2278_7664)">
<path
      d="M16 32C24.8366 32 32 24.8365 32 16C32 7.16344 24.8366 -7.62939e-06 16 -7.62939e-06C7.16347 -7.62939e-06 3.05176e-05 7.16344 3.05176e-05 16C3.05176e-05 24.8365 7.16347 32 16 32Z"
      fill="#FF3200"
    />
<path
      d="M11.5452 12.8039C11.9295 11.7084 11.3529 10.5087 10.2574 10.1244C9.16185 9.74015 7.96221 10.3167 7.57791 11.4123C7.19361 12.5078 7.77019 13.7075 8.86573 14.0918C9.96127 14.476 11.1609 13.8995 11.5452 12.8039Z"
      fill="black"
    />
<path
      d="M24.3801 12.9128C24.8244 11.8401 24.315 10.6105 23.2424 10.1662C22.1698 9.72187 20.9401 10.2312 20.4958 11.3038C20.0515 12.3765 20.5609 13.6061 21.6335 14.0504C22.7061 14.4947 23.9358 13.9854 24.3801 12.9128Z"
      fill="black"
    />
<path
      d="M22.2154 24.7569C22.0046 24.7566 21.8011 24.6794 21.6433 24.5396C21.4854 24.3999 21.384 24.2074 21.3581 23.9981C21.0218 21.2797 18.7228 19.2434 16 19.2434H15.9532C13.2572 19.2668 10.9738 21.3108 10.6418 23.9981C10.6107 24.2232 10.4922 24.4269 10.3121 24.5653C10.1319 24.7037 9.90454 24.7657 9.67908 24.7378C9.45362 24.71 9.24816 24.5946 9.1071 24.4165C8.96605 24.2384 8.90071 24.012 8.92522 23.7861C9.36337 20.2409 12.3784 17.5443 15.9384 17.5138H16C19.5954 17.5138 22.6304 20.2 23.0738 23.7865C23.1019 24.014 23.0385 24.2435 22.8975 24.4243C22.7565 24.6051 22.5494 24.7226 22.3218 24.7508C22.2865 24.7549 22.2509 24.757 22.2154 24.7569V24.7569Z"
      fill="black"
    />
</g>
<defs>
<clipPath id="clip0_2278_7664">
<rect width="32" height="32" fill="white" />
</clipPath>
</defs>
</svg>
