<svg width="32" height="32" viewBox="0 0 32 32" fill="none" xmlns="http://www.w3.org/2000/svg">
<g clip-path="url(#clip0_2278_7657)">
<path
      d="M16 32C24.8366 32 32 24.8366 32 16C32 7.16344 24.8366 0 16 0C7.16344 0 0 7.16344 0 16C0 24.8366 7.16344 32 16 32Z"
      fill="#FECE00"
    />
<path
      d="M9.56184 14.2102C10.7228 14.2102 11.664 13.269 11.664 12.108C11.664 10.947 10.7228 10.0058 9.56184 10.0058C8.40085 10.0058 7.45969 10.947 7.45969 12.108C7.45969 13.269 8.40085 14.2102 9.56184 14.2102Z"
      fill="black"
    />
<path
      d="M22.4382 14.2102C23.5991 14.2102 24.5403 13.269 24.5403 12.108C24.5403 10.947 23.5991 10.0058 22.4382 10.0058C21.2772 10.0058 20.336 10.947 20.336 12.108C20.336 13.269 21.2772 14.2102 22.4382 14.2102Z"
      fill="black"
    />
<path
      d="M21.4594 21.9458H10.5406C10.4257 21.948 10.3115 21.9273 10.2046 21.8848C10.0978 21.8423 10.0006 21.7789 9.9185 21.6984C9.83645 21.6179 9.77128 21.5218 9.72679 21.4158C9.68229 21.3098 9.65938 21.196 9.65938 21.0811C9.65938 20.9661 9.68229 20.8523 9.72679 20.7463C9.77128 20.6403 9.83645 20.5443 9.9185 20.4637C10.0006 20.3832 10.0978 20.3199 10.2046 20.2774C10.3115 20.2349 10.4257 20.2141 10.5406 20.2163H21.4594C21.5743 20.2141 21.6885 20.2349 21.7954 20.2774C21.9022 20.3199 21.9994 20.3832 22.0815 20.4637C22.1635 20.5443 22.2287 20.6403 22.2732 20.7463C22.3177 20.8523 22.3406 20.9661 22.3406 21.0811C22.3406 21.196 22.3177 21.3098 22.2732 21.4158C22.2287 21.5218 22.1635 21.6179 22.0815 21.6984C21.9994 21.7789 21.9022 21.8423 21.7954 21.8848C21.6885 21.9273 21.5743 21.948 21.4594 21.9458V21.9458Z"
      fill="black"
    />
</g>
<defs>
<clipPath id="clip0_2278_7657">
<rect width="32" height="32" fill="white" />
</clipPath>
</defs>
</svg>
