<svg width="24" height="24" viewBox="0 0 24 24" fill="none" xmlns="http://www.w3.org/2000/svg">
<path d="M10.6752 10.6752V3.2954C10.6752 2.4942 11.2687 1.8443 11.9999 1.8443C12.7312 1.8443 13.3247 2.4942 13.3247 3.2954V10.6752H20.7045C21.5057 10.6752 22.1556 11.2687 22.1556 11.9999C22.1556 12.7312 21.5057 13.3247 20.7045 13.3247H13.3247V20.7045C13.3247 21.5057 12.7312 22.1556 11.9999 22.1556C11.2687 22.1556 10.6752 21.5057 10.6752 20.7045V13.3247H3.2954C2.4942 13.3247 1.8443 12.7312 1.8443 11.9999C1.8443 11.2687 2.4942 10.6752 3.2954 10.6752H10.6752Z" fill="white"/>
</svg>
