<svg width="32" height="32" viewBox="0 0 32 32" fill="none" xmlns="http://www.w3.org/2000/svg">
<path d="M3 9.00001C3 8.24065 3.61549 7.62503 4.37491 7.62503H27.6251C28.3844 7.62503 29 8.24045 29 9.00001C29 9.75937 28.3845 10.375 27.6251 10.375H4.37491C3.61562 10.375 3 9.75956 3 9.00001ZM3 16C3 15.2406 3.61549 14.625 4.37491 14.625H27.6251C28.3844 14.625 29 15.2405 29 16C29 16.7594 28.3845 17.375 27.6251 17.375H4.37491C3.61562 17.375 3 16.7596 3 16ZM4.37491 21.625C3.61549 21.625 3 22.2406 3 23C3 23.7596 3.61562 24.375 4.37491 24.375H27.6251C28.3845 24.375 29 23.7594 29 23C29 22.2405 28.3844 21.625 27.6251 21.625H4.37491Z" fill="#8CD0F2"/>
</svg>
