<svg width="29" height="28" viewBox="0 0 29 28" fill="none" xmlns="http://www.w3.org/2000/svg">
    <path fill-rule="evenodd" clip-rule="evenodd" d="M6.72262 3.59021C7.14219 2.66716 8.01327 2 9.27588 2C9.90872 2 10.5167 2.31267 10.9994 2.63232C11.5106 2.97079 12.0276 3.41778 12.5051 3.87201C12.9861 4.3297 13.4499 4.81696 13.852 5.24726C13.9615 5.36444 14.065 5.47591 14.1627 5.58106L14.1644 5.58279L14.1649 5.58337L14.1649 5.58343L14.1652 5.58367C14.2592 5.68489 14.3478 5.78023 14.431 5.86918C14.5143 5.78016 14.6029 5.68473 14.6971 5.58343L14.6971 5.58337L14.6976 5.58279L14.6993 5.58106C14.797 5.47591 14.9005 5.36444 15.01 5.24726C15.4121 4.81696 15.8759 4.3297 16.3569 3.87201C16.8344 3.41778 17.3514 2.97079 17.8626 2.63232C18.3453 2.31267 18.9533 2 19.5861 2C20.8487 2 21.7198 2.66716 22.1394 3.59021C22.5299 4.44938 22.5116 5.47256 22.2298 6.318C21.9885 7.04172 21.4331 7.6825 20.771 8.17241H25.3103C25.8626 8.17241 26.3103 8.62013 26.3103 9.17241V12.5517C26.3103 13.104 25.8626 13.5517 25.3103 13.5517H15.5517V8.81165C15.2714 8.71015 15.0162 8.59839 14.7947 8.47248C14.6747 8.40425 14.5503 8.32311 14.431 8.2276C14.3117 8.32311 14.1873 8.40425 14.0673 8.47248C13.9706 8.52745 13.8675 8.57973 13.7586 8.62963V13.5517H4C3.44772 13.5517 3 13.104 3 12.5517V9.17243C3 8.62014 3.44772 8.17242 4 8.17242H8.09097C7.42891 7.68251 6.87346 7.04173 6.63222 6.318C6.35041 5.47256 6.33208 4.44938 6.72262 3.59021ZM8.35499 4.33221C8.18518 4.7058 8.16684 5.25158 8.33331 5.75097C8.458 6.12504 8.91394 6.64836 9.64173 7.03651C10.3525 7.41557 11.1302 7.56055 11.748 7.40608C12.3315 7.2602 12.7481 7.12278 13.0268 6.99271C12.9622 6.92336 12.8959 6.85205 12.8285 6.7795C12.7348 6.67859 12.6388 6.57527 12.5418 6.47149C12.1454 6.04727 11.7108 5.59128 11.2691 5.17109C10.8238 4.74745 10.3939 4.38194 10.0095 4.12738C9.59658 3.85399 9.36029 3.7931 9.27588 3.7931C8.74539 3.7931 8.49578 4.02249 8.35499 4.33221ZM13.3508 6.79242C13.3513 6.79247 13.3491 6.79583 13.3426 6.80238C13.347 6.79565 13.3503 6.79238 13.3508 6.79242ZM20.507 4.33221C20.6768 4.7058 20.6952 5.25158 20.5287 5.75097C20.404 6.12504 19.9481 6.64836 19.2203 7.03651C18.5095 7.41557 17.7318 7.56055 17.114 7.40608C16.5305 7.2602 16.1139 7.12278 15.8352 6.99271C15.8998 6.92336 15.9661 6.85205 16.0335 6.7795C16.1272 6.67859 16.2232 6.57527 16.3202 6.47149C16.7166 6.04727 17.1512 5.59128 17.5929 5.17109C18.0382 4.74745 18.4681 4.38194 18.8525 4.12738C19.2654 3.85399 19.5017 3.7931 19.5861 3.7931C20.1166 3.7931 20.3662 4.02249 20.507 4.33221ZM15.5112 6.79242C15.5107 6.79247 15.5129 6.79583 15.5194 6.80238C15.515 6.79565 15.5117 6.79238 15.5112 6.79242ZM3.89655 15.3448H13.7586V27H4.89655C4.34427 27 3.89655 26.5523 3.89655 26V15.3448ZM25.4138 15.3448H15.5517V27H24.4138C24.9661 27 25.4138 26.5523 25.4138 26V15.3448Z" fill="" />
</svg>