<svg width="20" height="20" viewBox="0 0 20 20" fill="none" xmlns="http://www.w3.org/2000/svg">
    <path d="M8.89601 8.896V2.74617C8.89601 2.0785 9.39059 1.53692 9.99993 1.53692C10.6093 1.53692 11.1039 2.0785 11.1039 2.74617V8.896H17.2538C17.9214 8.896 18.463 9.39058 18.463 9.99992C18.463 10.6093 17.9214 11.1039 17.2538 11.1039H11.1039V17.2538C11.1039 17.9214 10.6093 18.463 9.99993 18.463C9.39059 18.463 8.89601 17.9214 8.89601 17.2538V11.1039H2.74618C2.07851 11.1039 1.53693 10.6093 1.53693 9.99992C1.53693 9.39058 2.07851 8.896 2.74618 8.896H8.89601Z" fill="" />
</svg>