<svg width="32" height="32" viewBox="0 0 32 32" fill="none" xmlns="http://www.w3.org/2000/svg">
<path d="M5.05405 24.5261H2.62162V22.3152C2.62162 22.1197 2.5362 21.9322 2.38414 21.794C2.23208 21.6558 2.02585 21.5782 1.81081 21.5782C1.59577 21.5782 1.38954 21.6558 1.23748 21.794C1.08542 21.9322 1 22.1197 1 22.3152V25.263C1 25.4585 1.08542 25.6459 1.23748 25.7841C1.38954 25.9224 1.59577 26 1.81081 26H5.05405C5.26909 26 5.47533 25.9224 5.62738 25.7841C5.77944 25.6459 5.86486 25.4585 5.86486 25.263C5.86486 25.0676 5.77944 24.8801 5.62738 24.7419C5.47533 24.6037 5.26909 24.5261 5.05405 24.5261ZM30.1892 21.5782C29.9741 21.5782 29.7679 21.6558 29.6159 21.794C29.4638 21.9322 29.3784 22.1197 29.3784 22.3152V24.5261H26.9459C26.7309 24.5261 26.5247 24.6037 26.3726 24.7419C26.2206 24.8801 26.1351 25.0676 26.1351 25.263C26.1351 25.4585 26.2206 25.6459 26.3726 25.7841C26.5247 25.9224 26.7309 26 26.9459 26H30.1892C30.4042 26 30.6105 25.9224 30.7625 25.7841C30.9146 25.6459 31 25.4585 31 25.263V22.3152C31 22.1197 30.9146 21.9322 30.7625 21.794C30.6105 21.6558 30.4042 21.5782 30.1892 21.5782ZM30.1892 5H26.9459C26.7309 5 26.5247 5.07764 26.3726 5.21585C26.2206 5.35406 26.1351 5.54151 26.1351 5.73697C26.1351 5.93243 26.2206 6.11988 26.3726 6.25809C26.5247 6.39629 26.7309 6.47394 26.9459 6.47394H29.3784V8.68485C29.3784 8.88031 29.4638 9.06776 29.6159 9.20596C29.7679 9.34417 29.9741 9.42182 30.1892 9.42182C30.4042 9.42182 30.6105 9.34417 30.7625 9.20596C30.9146 9.06776 31 8.88031 31 8.68485V5.73697C31 5.54151 30.9146 5.35406 30.7625 5.21585C30.6105 5.07764 30.4042 5 30.1892 5ZM1.81081 9.42182C2.02585 9.42182 2.23208 9.34417 2.38414 9.20596C2.5362 9.06776 2.62162 8.88031 2.62162 8.68485V6.47394H5.05405C5.26909 6.47394 5.47533 6.39629 5.62738 6.25809C5.77944 6.11988 5.86486 5.93243 5.86486 5.73697C5.86486 5.54151 5.77944 5.35406 5.62738 5.21585C5.47533 5.07764 5.26909 5 5.05405 5H1.81081C1.59577 5 1.38954 5.07764 1.23748 5.21585C1.08542 5.35406 1 5.54151 1 5.73697V8.68485C1 8.88031 1.08542 9.06776 1.23748 9.20596C1.38954 9.34417 1.59577 9.42182 1.81081 9.42182Z" fill="white"/>
<rect x="5" y="9" width="2" height="14" rx="1" fill="white"/>
<rect x="10" y="9" width="2" height="13" rx="1" fill="white"/>
<rect x="15" y="9" width="2" height="14" rx="1" fill="white"/>
<rect x="20" y="9" width="2" height="13" rx="1" fill="white"/>
<rect x="25" y="9" width="2" height="14" rx="1" fill="white"/>
</svg>
