<svg width="14" height="14" viewBox="0 0 14 14" fill="none" xmlns="http://www.w3.org/2000/svg">
<path d="M4.12895 7.02039C4.12895 5.44652 5.3774 4.1699 6.91836 4.1699C8.45906 4.1699 9.70707 5.44652 9.70707 7.02039C9.70707 8.59495 8.4588 9.87105 6.91836 9.87105C5.37766 9.87105 4.12895 8.59495 4.12895 7.02039ZM5.62537 11.7315C5.77491 12.6374 5.7848 13.1308 5.7848 13.1308C5.79162 13.4816 6.08344 13.7676 6.43247 13.7676H7.37502C7.72397 13.7676 8.03399 13.4823 8.0633 13.133C8.0633 13.133 8.13199 12.3177 8.26805 11.7502L8.27969 11.7028C8.30121 11.656 8.41977 11.5792 8.5442 11.5336C8.66784 11.4874 9.1126 11.3729 9.27159 11.4076L9.42357 11.5181C10.1586 12.0507 10.492 12.3763 10.492 12.3763C10.7425 12.6205 11.1478 12.6161 11.393 12.3665L12.0662 11.6812C12.3112 11.4316 12.3161 11.019 12.0765 10.7642C12.0765 10.7642 11.7129 10.3773 11.3047 9.62789L11.2115 9.45621C11.2006 9.24796 11.2367 8.97339 11.2924 8.84642C11.348 8.7192 11.4937 8.36106 11.5307 8.35091L11.5675 8.34435C12.4574 8.1928 13.1328 8.18072 13.1328 8.18072C13.4817 8.17416 13.7676 7.88209 13.7676 7.53174V6.55314C13.7676 6.20314 13.4817 5.91106 13.1328 5.90424C13.1328 5.90424 12.3947 5.89015 11.5849 5.65346L11.5336 5.63841C11.4818 5.61199 11.4141 5.51749 11.3829 5.42797C11.3519 5.33864 11.2606 4.9147 11.2628 4.67827L11.3693 4.48359C11.7764 3.73319 12.1398 3.3467 12.1398 3.3467C12.3797 3.09199 12.3751 2.67934 12.1299 2.4297L11.4572 1.74466C11.212 1.49502 10.8067 1.49091 10.5564 1.73469C10.5564 1.73469 10.2224 2.06045 9.48727 2.59359L9.34955 2.6936C9.20509 2.73052 8.97662 2.70725 8.84257 2.64162C8.70844 2.57609 8.31329 2.39137 8.2845 2.3324L8.26779 2.27386C8.03521 1.44961 8.02314 0.910262 8.02314 0.910262C8.01587 0.560175 7.7238 0.273438 7.37459 0.273438H6.43221C6.083 0.273438 5.79136 0.560175 5.78436 0.910262C5.78436 0.910262 5.77465 1.38609 5.62511 2.29233L5.61759 2.33721C5.60551 2.38236 5.4845 2.4598 5.34879 2.50959C5.21246 2.55911 4.73209 2.68896 4.56514 2.65667L4.40492 2.54039C3.67097 2.00734 3.33646 1.68175 3.33646 1.68175C3.08621 1.43727 2.68091 1.44209 2.43574 1.69146L1.76269 2.37676C1.51786 2.6264 1.51296 3.03905 1.7528 3.29376C1.7528 3.29376 2.11627 3.68025 2.52411 4.43065L2.62859 4.62271C2.63226 4.85546 2.60444 5.1191 2.56664 5.208C2.52919 5.29707 2.38446 5.57235 2.31157 5.61216L2.23799 5.63404C1.428 5.87072 0.90825 5.88236 0.90825 5.88236C0.558775 5.89015 0.273438 6.18292 0.273438 6.53327V7.51187C0.273438 7.86196 0.558775 8.155 0.90825 8.16252C0.90825 8.16252 1.36631 8.17267 2.25662 8.32466L2.30799 8.33367C2.3583 8.34872 2.43381 8.46405 2.47546 8.58952C2.51702 8.71579 2.64364 9.21952 2.63681 9.44387L2.53689 9.62789C2.12887 10.3773 1.7647 10.7642 1.7647 10.7642C1.52504 11.0194 1.52994 11.4316 1.77485 11.6812L2.4486 12.3665C2.69351 12.6161 3.09934 12.6205 3.34932 12.3763C3.34932 12.3763 3.68305 12.0507 4.41779 11.5181L4.57406 11.4049C4.73716 11.3711 4.97779 11.3918 5.10991 11.451C5.24125 11.5103 5.61032 11.6628 5.61951 11.6977C5.61951 11.697 5.61951 11.697 5.62537 11.7315Z" fill="#858585"/>
</svg>
