<svg width="32" height="32" viewBox="0 0 32 32" fill="none" xmlns="http://www.w3.org/2000/svg">
<path fill-rule="evenodd" clip-rule="evenodd" d="M28 15.1653C28 21.3194 22.6274 26.3082 16 26.3082C14.8921 26.3082 13.8193 26.1688 12.8008 25.9078L8.23996 28.1882C7.88776 28.3643 7.47966 28.0831 7.51884 27.6912L7.93601 23.5195C7.93905 23.4891 7.94472 23.4596 7.95274 23.4314C5.52519 21.3924 4 18.4443 4 15.1653C4 9.0113 9.37258 4.02248 16 4.02248C22.6274 4.02248 28 9.0113 28 15.1653ZM21.7143 16.8796C22.661 16.8796 23.4285 16.1121 23.4285 15.1653C23.4285 14.2186 22.661 13.451 21.7143 13.451C20.7675 13.451 20 14.2186 20 15.1653C20 16.1121 20.7675 16.8796 21.7143 16.8796ZM10.2857 16.8796C11.2325 16.8796 12 16.1121 12 15.1653C12 14.2186 11.2325 13.4511 10.2857 13.4511C9.33892 13.4511 8.57141 14.2186 8.57141 15.1653C8.57141 16.1121 9.33892 16.8796 10.2857 16.8796ZM17.7143 15.1653C17.7143 16.1121 16.9468 16.8796 16 16.8796C15.0532 16.8796 14.2857 16.1121 14.2857 15.1653C14.2857 14.2186 15.0532 13.451 16 13.451C16.9468 13.451 17.7143 14.2186 17.7143 15.1653Z" fill="#F2F3F5"/>
</svg>
