<svg width="25" height="25" viewBox="0 0 25 25" fill="none" xmlns="http://www.w3.org/2000/svg">
<path fill-rule="evenodd" clip-rule="evenodd" d="M19.8635 2.39005C21.523 2.39005 22.8683 3.73534 22.8683 5.39485V19.4173C22.8683 21.0768 21.523 22.4221 19.8635 22.4221H5.84105C4.18154 22.4221 2.83624 21.0768 2.83624 19.4173V5.39485C2.83624 3.73534 4.18154 2.39005 5.84105 2.39005H19.8635ZM19.8635 4.39325H5.84105C5.28788 4.39325 4.83945 4.84168 4.83945 5.39485V19.4173C4.83945 19.9705 5.28788 20.4189 5.84105 20.4189H19.8635C20.4167 20.4189 20.8651 19.9705 20.8651 19.4173V5.39485C20.8651 4.84168 20.4167 4.39325 19.8635 4.39325ZM12.8523 7.39806C13.3659 7.39806 13.7893 7.78472 13.8471 8.28286L13.8539 8.39966L13.8537 11.4045H16.8587C17.4119 11.4045 17.8603 11.8529 17.8603 12.4061C17.8603 12.9197 17.4736 13.3431 16.9755 13.4009L16.8587 13.4077L13.8537 13.4076L13.8539 16.4125C13.8539 16.9657 13.4054 17.4141 12.8523 17.4141C12.3386 17.4141 11.9153 17.0274 11.8574 16.5293L11.8507 16.4125V13.4076L8.84586 13.4077C8.29269 13.4077 7.84426 12.9592 7.84426 12.4061C7.84426 11.8924 8.23092 11.4691 8.72905 11.4112L8.84586 11.4045H11.8507V8.39966C11.8507 7.84649 12.2991 7.39806 12.8523 7.39806Z" fill="#4E5968"/>
</svg>
