<svg width="20" height="20" viewBox="0 0 20 20" fill="none" xmlns="http://www.w3.org/2000/svg">
    <path fill-rule="evenodd" clip-rule="evenodd" d="M9.99998 0.833313C10.9205 0.833313 11.6666 1.57951 11.6666 2.49998V2.57498C11.6688 3.12302 11.9963 3.61742 12.5 3.83331C13.0142 4.06027 13.6148 3.95137 14.0166 3.55831L14.0666 3.50831C14.3793 3.19535 14.8035 3.0195 15.2458 3.0195C15.6882 3.0195 16.1124 3.19535 16.425 3.50831C16.7379 3.82093 16.9138 4.24513 16.9138 4.68748C16.9138 5.12983 16.7379 5.55403 16.425 5.86665L16.375 5.91665C15.9819 6.31847 15.873 6.91907 16.1 7.43331V7.49998C16.3159 8.00371 16.8103 8.33113 17.3583 8.33331H17.5C18.4205 8.33331 19.1666 9.07951 19.1666 9.99998C19.1666 10.9205 18.4205 11.6666 17.5 11.6666H17.425C16.8769 11.6688 16.3825 11.9963 16.1666 12.5C15.9397 13.0142 16.0486 13.6148 16.4416 14.0166L16.4916 14.0666C16.8046 14.3793 16.9805 14.8035 16.9805 15.2458C16.9805 15.6882 16.8046 16.1124 16.4916 16.425C16.179 16.7379 15.7548 16.9138 15.3125 16.9138C14.8701 16.9138 14.4459 16.7379 14.1333 16.425L14.0833 16.375C13.6815 15.9819 13.0809 15.873 12.5666 16.1C12.0629 16.3159 11.7355 16.8103 11.7333 17.3583V17.5C11.7333 18.4205 10.9871 19.1666 10.0666 19.1666C9.14617 19.1666 8.39998 18.4205 8.39998 17.5V17.425C8.38678 16.8605 8.02987 16.3615 7.49998 16.1666C6.98574 15.9397 6.38514 16.0486 5.98331 16.4416L5.93331 16.4916C5.6207 16.8046 5.1965 16.9805 4.75415 16.9805C4.3118 16.9805 3.88759 16.8046 3.57498 16.4916C3.26202 16.179 3.08617 15.7548 3.08617 15.3125C3.08617 14.8701 3.26202 14.4459 3.57498 14.1333L3.62498 14.0833C4.01804 13.6815 4.12694 13.0809 3.89998 12.5666C3.68409 12.0629 3.18968 11.7355 2.64165 11.7333H2.49998C1.57951 11.7333 0.833313 10.9871 0.833313 10.0666C0.833313 9.14617 1.57951 8.39998 2.49998 8.39998H2.57498C3.13942 8.38678 3.63843 8.02987 3.83331 7.49998C4.06027 6.98574 3.95137 6.38514 3.55831 5.98331L3.50831 5.93331C3.19535 5.6207 3.0195 5.1965 3.0195 4.75415C3.0195 4.3118 3.19535 3.88759 3.50831 3.57498C3.82093 3.26202 4.24513 3.08617 4.68748 3.08617C5.12983 3.08617 5.55403 3.26202 5.86665 3.57498L5.91665 3.62498C6.31847 4.01804 6.91907 4.12694 7.43331 3.89998H7.49998C8.00371 3.68409 8.33113 3.18968 8.33331 2.64165V2.49998C8.33331 1.57951 9.07951 0.833313 9.99998 0.833313ZM9.99998 7.49998C8.61927 7.49998 7.49998 8.61927 7.49998 9.99998C7.49998 11.3807 8.61927 12.5 9.99998 12.5C11.3807 12.5 12.5 11.3807 12.5 9.99998C12.5 8.61927 11.3807 7.49998 9.99998 7.49998Z" fill="" />
</svg>